<svg width="88" height="88" viewBox="0 0 88 88" fill="none" xmlns="http://www.w3.org/2000/svg">
<g filter="url(#filter0_d_76062_4)">
<rect x="23" y="18" width="41.7571" height="41.7571" rx="20.8785" fill="#E3B873"/>
<rect x="19" y="14" width="49.7571" height="49.7571" rx="24.8785" stroke="white" stroke-width="8"/>
</g>
<path d="M38.4708 44.7514C37.4988 44.7514 36.6168 44.4934 35.8248 43.9774C35.0328 43.4614 34.4028 42.7114 33.9348 41.7274C33.4788 40.7314 33.2508 39.5494 33.2508 38.1814C33.2508 36.8134 33.4788 35.6374 33.9348 34.6534C34.4028 33.6574 35.0328 32.9014 35.8248 32.3854C36.6168 31.8694 37.4988 31.6114 38.4708 31.6114C39.4428 31.6114 40.3248 31.8694 41.1168 32.3854C41.9088 32.9014 42.5328 33.6574 42.9888 34.6534C43.4568 35.6374 43.6908 36.8134 43.6908 38.1814C43.6908 39.5494 43.4568 40.7314 42.9888 41.7274C42.5328 42.7114 41.9088 43.4614 41.1168 43.9774C40.3248 44.4934 39.4428 44.7514 38.4708 44.7514ZM38.4708 44.3914C39.8508 44.3914 40.5408 42.3214 40.5408 38.1814C40.5408 34.0414 39.8508 31.9714 38.4708 31.9714C37.0908 31.9714 36.4008 34.0414 36.4008 38.1814C36.4008 42.3214 37.0908 44.3914 38.4708 44.3914ZM45.0394 43.6714C45.0394 42.9634 45.1774 42.3214 45.4534 41.7454C45.7414 41.1574 46.0894 40.6474 46.4974 40.2154C46.9054 39.7834 47.4394 39.2734 48.0994 38.6854C48.7114 38.1454 49.1914 37.6954 49.5394 37.3354C49.8874 36.9634 50.1814 36.5494 50.4214 36.0934C50.6614 35.6254 50.7814 35.1214 50.7814 34.5814C50.7814 33.7894 50.5894 33.1714 50.2054 32.7274C49.8214 32.2834 49.3234 32.0614 48.7114 32.0614C48.3634 32.0614 48.0094 32.1094 47.6494 32.2054L47.2714 32.3314V35.2114L47.0374 35.2654C46.8454 35.2894 46.6834 35.3014 46.5514 35.3014C46.1434 35.3014 45.8134 35.1814 45.5614 34.9414C45.3214 34.6894 45.2014 34.3594 45.2014 33.9514C45.2014 33.5674 45.3454 33.1954 45.6334 32.8354C45.9334 32.4754 46.3714 32.1814 46.9474 31.9534C47.5354 31.7254 48.2434 31.6114 49.0714 31.6114C50.6914 31.6114 51.8914 31.9354 52.6714 32.5834C53.4514 33.2314 53.8414 34.1374 53.8414 35.3014C53.8414 36.0334 53.6494 36.6634 53.2654 37.1914C52.8934 37.7194 52.4314 38.1574 51.8794 38.5054C51.3394 38.8534 50.6134 39.2494 49.7014 39.6934C48.9334 40.0654 48.3094 40.3954 47.8294 40.6834C47.3614 40.9594 46.9234 41.2954 46.5154 41.6914C46.1194 42.0874 45.8374 42.5374 45.6694 43.0414H52.3294C52.4134 42.3934 52.6174 41.8534 52.9414 41.4214C53.0734 41.2174 53.2294 41.0374 53.4094 40.8814H53.9494V44.4814H45.0394V43.6714Z" fill="white"/>
<defs>
<filter id="filter0_d_76062_4" x="0" y="0" width="87.7571" height="87.7568" filterUnits="userSpaceOnUse" color-interpolation-filters="sRGB">
<feFlood flood-opacity="0" result="BackgroundImageFix"/>
<feColorMatrix in="SourceAlpha" type="matrix" values="0 0 0 0 0 0 0 0 0 0 0 0 0 0 0 0 0 0 127 0" result="hardAlpha"/>
<feOffset dy="5"/>
<feGaussianBlur stdDeviation="7.5"/>
<feColorMatrix type="matrix" values="0 0 0 0 0.890196 0 0 0 0 0.721569 0 0 0 0 0.45098 0 0 0 0.15 0"/>
<feBlend mode="normal" in2="BackgroundImageFix" result="effect1_dropShadow_76062_4"/>
<feBlend mode="normal" in="SourceGraphic" in2="effect1_dropShadow_76062_4" result="shape"/>
</filter>
</defs>
</svg>
